<svg width="28" height="20" viewBox="0 0 28 20" fill="none" xmlns="http://www.w3.org/2000/svg">
<path fill-rule="evenodd" clip-rule="evenodd" d="M20.7888 20L19.238 18.1343C22.2658 17.3134 23.4473 15.2239 23.4473 15.2239C19.6073 18.8806 9.12089 19.0299 5.05926 15.2239C5.05926 15.2239 6.09313 17.1642 9.19473 18.1343L7.49624 20C2.3269 19.9254 0.333008 16.4179 0.333008 16.4179C0.333008 8.65672 3.73 2.46269 3.73 2.46269C7.20085 0 10.3763 0 10.3763 0L10.5978 0.298507C6.31467 1.49254 4.46848 3.43284 4.46848 3.43284C9.49013 0 19.8288 0.298507 23.8904 3.43284C23.9643 3.35821 21.4535 1.34328 17.5395 0.298507L17.9088 0C17.9088 0 21.0842 0 24.5551 2.46269C24.5551 2.46269 27.9521 8.65672 27.9521 16.4179C27.9521 16.4179 25.9582 19.9254 20.7888 20ZM9.71167 14.1791C11.0576 14.1791 12.1486 13.0097 12.1486 11.5672C12.1486 10.1246 11.0576 8.95522 9.71167 8.95522C8.36576 8.95522 7.27469 10.1246 7.27469 11.5672C7.27469 13.0097 8.36576 14.1791 9.71167 14.1791ZM20.715 11.5672C20.715 13.0097 19.6239 14.1791 18.278 14.1791C16.9321 14.1791 15.841 13.0097 15.841 11.5672C15.841 10.1246 16.9321 8.95522 18.278 8.95522C19.6239 8.95522 20.715 10.1246 20.715 11.5672Z" fill="#D1D5DB"/>
</svg>
