<svg width="21" height="20" viewBox="0 0 21 20" fill="none" xmlns="http://www.w3.org/2000/svg">
<path d="M16.0926 3.43943C16.052 3.43943 16.0114 3.44149 15.971 3.44559C15.9306 3.44968 15.8904 3.45581 15.8506 3.46395C15.8108 3.47208 15.7715 3.48221 15.7327 3.49431C15.6939 3.50641 15.6557 3.52047 15.6183 3.53642C15.5809 3.55238 15.5443 3.57023 15.5087 3.58988C15.473 3.6095 15.4384 3.6309 15.4049 3.65401C15.3713 3.67714 15.339 3.70195 15.3079 3.72834C15.2769 3.7547 15.2471 3.78262 15.2189 3.81198C15.1906 3.84135 15.1638 3.87214 15.1385 3.90422C15.1133 3.9363 15.0896 3.96963 15.0677 4.00409C15.0458 4.03853 15.0256 4.07405 15.0072 4.11052C14.9887 4.14701 14.9721 4.18442 14.9574 4.22259C14.9427 4.26076 14.9299 4.29964 14.919 4.33909C14.9081 4.37855 14.8992 4.41852 14.8923 4.45887C14.8854 4.49921 14.8805 4.53987 14.8777 4.5807C14.8756 4.60962 14.8746 4.63861 14.8746 4.66761C14.8746 4.70858 14.8766 4.74951 14.8807 4.79027C14.8847 4.83102 14.8908 4.87153 14.8989 4.91166C14.9069 4.95178 14.917 4.99148 14.929 5.0306C14.941 5.06972 14.9549 5.10822 14.9708 5.14594C14.9866 5.18368 15.0043 5.22059 15.0238 5.25654C15.0432 5.29249 15.0645 5.32743 15.0874 5.36123C15.1103 5.39502 15.1349 5.42762 15.1611 5.45893C15.1872 5.49026 15.2149 5.52025 15.244 5.54879C15.2732 5.57731 15.3037 5.60435 15.3355 5.6298C15.3674 5.65526 15.4004 5.67911 15.4346 5.70124C15.4688 5.72337 15.504 5.74377 15.5403 5.76235C15.5764 5.78093 15.6135 5.79769 15.6514 5.81254C15.6892 5.82738 15.7278 5.8403 15.7669 5.85125C15.806 5.86218 15.8457 5.87114 15.8857 5.87808C15.9257 5.88505 15.966 5.89 16.0065 5.89291C16.0352 5.89496 16.0639 5.89599 16.0927 5.89599C16.1333 5.896 16.1739 5.89396 16.2143 5.88989C16.2547 5.8858 16.2949 5.87967 16.3347 5.87153C16.3745 5.8634 16.4139 5.85327 16.4527 5.84117C16.4914 5.82907 16.5296 5.81501 16.567 5.79906C16.6044 5.78311 16.641 5.76529 16.6767 5.74566C16.7123 5.72602 16.7469 5.7046 16.7804 5.68147C16.814 5.65836 16.8463 5.63357 16.8774 5.6072C16.9084 5.58082 16.9382 5.55288 16.9665 5.5235C16.9947 5.49412 17.0216 5.46334 17.0468 5.43126C17.072 5.39918 17.0957 5.36585 17.1176 5.33139C17.1395 5.29693 17.1597 5.26139 17.1782 5.2249C17.1966 5.1884 17.2132 5.15099 17.2279 5.11282C17.2426 5.07466 17.2555 5.03578 17.2663 4.99632C17.2772 4.95687 17.2861 4.91689 17.293 4.87654C17.2999 4.83621 17.3048 4.79555 17.3076 4.75471C17.3097 4.72579 17.3107 4.6968 17.3107 4.6678C17.3107 4.62686 17.3087 4.58594 17.3046 4.5452C17.3006 4.50446 17.2945 4.46395 17.2864 4.42382C17.2784 4.38369 17.2683 4.344 17.2563 4.30488C17.2443 4.26575 17.2304 4.22726 17.2145 4.18953C17.1987 4.1518 17.181 4.11489 17.1616 4.07894C17.1421 4.04299 17.1209 4.00805 17.0979 3.97425C17.075 3.94044 17.0504 3.90781 17.0242 3.87649C16.998 3.84516 16.9704 3.81516 16.9413 3.78662C16.9121 3.7581 16.8816 3.73106 16.8498 3.70562C16.818 3.68017 16.7849 3.65635 16.7507 3.63424C16.7165 3.61211 16.6813 3.59171 16.6451 3.57313C16.6089 3.55454 16.5718 3.53779 16.534 3.52294C16.4961 3.5081 16.4576 3.49518 16.4184 3.48423C16.3793 3.47327 16.3397 3.4643 16.2996 3.45733C16.2596 3.45039 16.2193 3.44546 16.1788 3.44257C16.1501 3.44052 16.1214 3.43943 16.0926 3.43943Z" fill="#D1D5DB"/>
<path fill-rule="evenodd" clip-rule="evenodd" d="M10.7705 4.89561C10.5946 4.89561 10.4207 4.90459 10.2493 4.92218C10.0779 4.93977 9.90885 4.96583 9.7427 5.00004C9.57656 5.03425 9.41337 5.07662 9.25344 5.12662L8.78404 5.29929L8.33713 5.51548L7.91541 5.77255L7.52136 6.06782L7.15774 6.39871L6.82713 6.76266L6.53207 7.15697L6.27514 7.57907L6.05921 8.02628C5.99431 8.17924 5.93658 8.33605 5.8866 8.49614C5.83662 8.65622 5.79433 8.81965 5.76012 8.9859C5.7259 9.15214 5.69989 9.32128 5.68227 9.49286C5.66465 9.66443 5.65581 9.83851 5.65581 10.0145C5.65581 10.1905 5.66478 10.3646 5.68227 10.5362C5.69966 10.7064 5.72565 10.8756 5.76012 11.0432C5.79433 11.2101 5.83662 11.3729 5.8866 11.533C5.93658 11.693 5.99424 11.8498 6.05921 12.0028L6.27514 12.45L6.53207 12.8721L6.82713 13.2664L7.15774 13.6304L7.52136 13.9613L7.91541 14.2565L8.33713 14.5136L8.78404 14.7298L9.25344 14.9025L9.7427 15.0291C9.91014 15.0636 10.0792 15.0896 10.2493 15.107C10.4224 15.1247 10.5964 15.1335 10.7705 15.1335C10.9464 15.1335 11.1203 15.1245 11.2917 15.107C11.4617 15.0896 11.6308 15.0636 11.7982 15.0291L12.2876 14.9025L12.757 14.7298L13.2038 14.5136L13.6256 14.2565L14.0196 13.9613L14.3833 13.6304L14.7139 13.2664L15.009 12.8721L15.2659 12.45L15.4819 12.0028L15.6545 11.533C15.7044 11.3729 15.7467 11.2095 15.7809 11.0432L15.8588 10.5361C15.8763 10.3645 15.8853 10.1905 15.8853 10.0145C15.8853 9.83845 15.8763 9.66437 15.8588 9.49279C15.8414 9.3226 15.8154 9.15339 15.7809 8.98583C15.7467 8.81894 15.7044 8.65622 15.6545 8.49607L15.4819 8.02621L15.2659 7.57901L15.009 7.15691L14.7139 6.7626L14.3833 6.39865L14.0196 6.06775L13.6256 5.77249L13.2038 5.51541L12.757 5.29922L12.2876 5.12656L11.7982 4.99998L11.2917 4.92212C11.1185 4.9044 10.9446 4.89559 10.7705 4.89561ZM10.7705 6.66246C10.8868 6.66246 11.0015 6.66824 11.1146 6.67966L11.4478 6.73018L11.7696 6.81234L12.0778 6.92448L12.3708 7.06505L12.6463 7.23226L12.9039 7.42464L13.1413 7.64044L13.3569 7.87806L13.5492 8.13585L13.7163 8.41224L13.8566 8.70558C13.8987 8.80597 13.9362 8.90887 13.9687 9.01407C14.0013 9.11928 14.0286 9.22679 14.0507 9.3363C14.0728 9.44581 14.0892 9.55724 14.1011 9.6704L14.1183 10.0148C14.1183 10.1312 14.1125 10.2461 14.1011 10.3593C14.0897 10.4726 14.0729 10.584 14.0507 10.6934C14.0285 10.8029 14.0011 10.9104 13.9687 11.0157L13.8566 11.3242L13.7163 11.6175L13.5492 11.8938L13.3569 12.1517L13.1413 12.3893L12.9039 12.6051L12.6463 12.7975L12.3708 12.9647L12.0778 13.1053L11.7696 13.2174L11.4478 13.2996L11.1146 13.35C11.0002 13.3615 10.8854 13.3672 10.7704 13.3672C10.6555 13.3672 10.5406 13.3615 10.4262 13.35L10.0931 13.2996C9.98368 13.2774 9.8763 13.2499 9.77115 13.2174L9.46296 13.1053L9.16996 12.9647L8.89444 12.7975L8.63687 12.6051L8.39941 12.3893L8.18381 12.1517L7.99159 11.8938L7.82449 11.6175L7.68417 11.3242L7.57204 11.0157L7.49003 10.6934L7.4396 10.3593C7.42813 10.2449 7.4224 10.1299 7.42243 10.0148C7.4224 9.89981 7.42813 9.78485 7.4396 9.6704C7.45094 9.55724 7.46779 9.44574 7.49003 9.3363C7.51204 9.22762 7.53943 9.1201 7.5721 9.01414L7.68423 8.70565L7.82455 8.41231L7.99165 8.13591L8.18387 7.87813L8.39948 7.6405L8.63693 7.4247L8.89451 7.23233L9.17002 7.06512L9.46303 6.92454C9.56388 6.88211 9.66675 6.84469 9.77128 6.81241L10.0932 6.73025C10.2026 6.70804 10.3139 6.69109 10.4264 6.67973C10.5407 6.66825 10.6556 6.66244 10.7705 6.66246Z" fill="#D1D5DB"/>
<path fill-rule="evenodd" clip-rule="evenodd" d="M8.30189 0.00788898C8.74784 0.0015985 9.24428 -0.000711972 9.80056 0.000186669L9.8012 0.000313996L11.6585 0.0117401L13.109 0.0288784L14.255 0.0545534C14.5922 0.0648236 14.8875 0.0775339 15.1501 0.0937095C15.4126 0.109885 15.6422 0.129334 15.8478 0.153404C16.0534 0.177475 16.2351 0.205782 16.4017 0.239738C16.5683 0.273694 16.7197 0.313041 16.8651 0.358936C17.0097 0.404946 17.1521 0.457791 17.2917 0.51729C17.4338 0.577242 17.5784 0.644831 17.7349 0.721023C17.8292 0.766872 17.9221 0.815419 18.0136 0.866603C18.1036 0.916943 18.192 0.969944 18.2788 1.02553C18.3644 1.08035 18.4483 1.13776 18.5304 1.19769C18.6117 1.25701 18.6911 1.31886 18.7685 1.38313C18.8457 1.44719 18.9205 1.51343 18.993 1.58186C19.0656 1.65026 19.136 1.72094 19.204 1.79381C19.2722 1.86676 19.3381 1.94186 19.4015 2.01898C19.4653 2.09653 19.5266 2.17605 19.5854 2.25744C19.6445 2.33909 19.7013 2.42298 19.7558 2.50906C19.8104 2.59514 19.8625 2.6834 19.9126 2.7739C19.9626 2.86441 20.0103 2.95703 20.0558 3.05197C20.1013 3.1469 20.145 3.24389 20.1853 3.34319C20.2257 3.44249 20.2643 3.54397 20.3007 3.64764C20.3375 3.7526 20.3716 3.85848 20.403 3.96518C20.4353 4.0747 20.4649 4.18499 20.4918 4.29594C20.5194 4.40997 20.5445 4.52462 20.5669 4.6398C20.5871 4.74404 20.6062 4.89822 20.6239 5.094L20.6726 5.79751L20.7117 6.69987L20.7403 7.75083L20.7617 10.0972L20.7525 11.2919L20.7285 12.4345L20.695 13.46L20.6559 14.2846C20.6411 14.5303 20.6243 14.7489 20.6046 14.9468C20.5849 15.1446 20.5621 15.3217 20.5352 15.4845C20.5083 15.6473 20.4772 15.7957 20.441 15.9363C20.4059 16.0729 20.3642 16.2078 20.316 16.3404C20.2671 16.474 20.213 16.6056 20.1537 16.735C20.0926 16.8692 20.0244 17.0083 19.9478 17.1585C19.8969 17.2583 19.8469 17.3483 19.7926 17.435C19.737 17.5237 19.6767 17.6095 19.6119 17.6918C19.544 17.7786 19.4665 17.8687 19.3746 17.9688C19.2827 18.0688 19.176 18.1788 19.0496 18.3054C18.9058 18.4496 18.7896 18.5636 18.6871 18.6582C18.5846 18.7528 18.4956 18.8279 18.4062 18.8939C18.3155 18.9605 18.2206 19.021 18.1221 19.0752C18.0173 19.1334 17.898 19.193 17.7498 19.2645C17.6533 19.3111 17.5572 19.355 17.4609 19.3961C17.3652 19.437 17.2686 19.4755 17.1711 19.5117C17.0742 19.5477 16.9767 19.5812 16.8781 19.6122C16.7796 19.6432 16.68 19.6724 16.579 19.6981C16.477 19.7246 16.3744 19.7486 16.2712 19.7701C16.1669 19.792 16.0606 19.8116 15.952 19.8292C15.8433 19.8468 15.7317 19.8622 15.6185 19.8758C15.5054 19.8893 15.3881 19.9009 15.2683 19.9106L14.71 19.9394L13.8531 19.9635L11.5994 19.9952L9.21942 20C8.48424 19.9966 7.84672 19.9877 7.42557 19.9724C7.15294 19.9625 6.89921 19.9502 6.66182 19.9348C6.42443 19.9194 6.2035 19.901 5.99642 19.8787C5.78933 19.8564 5.59551 19.8305 5.41419 19.8004C5.23286 19.7702 5.06153 19.7356 4.89968 19.6962C4.73783 19.6568 4.5847 19.6124 4.43772 19.5624C4.29073 19.5125 4.15003 19.457 4.01278 19.3953C3.87554 19.3336 3.74201 19.2657 3.60964 19.191C3.47726 19.1162 3.34585 19.0347 3.21302 18.9458C3.06992 18.8501 2.93157 18.7475 2.79847 18.6383C2.66693 18.5303 2.54212 18.4167 2.42377 18.2973C2.30561 18.1782 2.19369 18.053 2.08848 17.9222C1.98314 17.7915 1.88447 17.6549 1.7922 17.5124C1.69994 17.37 1.61408 17.2217 1.53463 17.0674C1.45518 16.9131 1.38214 16.7528 1.31537 16.5865C1.24745 16.4168 1.18695 16.2442 1.13405 16.0692C1.07879 15.8864 1.03083 15.7014 0.990267 15.5148C0.970276 15.423 0.951695 15.317 0.934396 15.1958C0.9154 15.0593 0.89957 14.9225 0.886917 14.7853L0.847448 14.2762L0.81586 13.662L0.774854 12.0893L0.761719 10.0137L0.766204 8.58631L0.78171 7.40543L0.810542 6.4367C0.822716 6.14534 0.837581 5.88358 0.855522 5.6457C0.871392 5.42934 0.892628 5.21341 0.91921 4.9981C0.943878 4.80168 0.971942 4.62407 1.00411 4.45892C1.03627 4.29376 1.07234 4.14106 1.1129 3.99509C1.15266 3.85226 1.19777 3.71099 1.24816 3.57157C1.31608 3.38299 1.38412 3.21404 1.45704 3.05717C1.49267 2.98037 1.53056 2.90463 1.57064 2.83007C1.61011 2.75676 1.65137 2.68551 1.69494 2.61555C1.73897 2.54496 1.78518 2.47578 1.83353 2.40809C1.88242 2.33941 1.93432 2.27111 1.98974 2.20205C2.10059 2.06385 2.22547 1.92302 2.36918 1.77198C2.48355 1.65112 2.59363 1.54296 2.7014 1.44462C2.8045 1.35012 2.91198 1.26055 3.0235 1.17618C3.13178 1.09467 3.24237 1.01982 3.35911 0.948956C3.47585 0.878092 3.59874 0.811143 3.73176 0.745029C3.90463 0.659145 4.0725 0.582505 4.2446 0.514208C4.33065 0.48006 4.41779 0.448094 4.50711 0.417926C4.59826 0.387231 4.69024 0.359062 4.78294 0.333453C4.87777 0.307264 4.97606 0.282871 5.07896 0.260277C5.18186 0.237683 5.28918 0.216887 5.40227 0.19763C5.52105 0.177591 5.64023 0.16002 5.75973 0.14493C5.88532 0.128947 6.01782 0.114441 6.15827 0.101474C6.43916 0.0754781 6.7521 0.0553885 7.10629 0.0399833L8.30189 0.00788898ZM13.4436 1.78078L10.7652 1.7655L10.7656 1.76492L8.09135 1.78129L7.08604 1.80119C6.80983 1.80908 6.60005 1.81846 6.47831 1.82898C6.30378 1.84413 6.14052 1.86159 5.98706 1.88181C5.83361 1.90203 5.68989 1.9252 5.55457 1.95178C5.42588 1.97675 5.29827 2.00701 5.17206 2.04247C5.05192 2.07714 4.93851 2.11533 4.83055 2.15801C4.72258 2.2007 4.61994 2.24813 4.5212 2.30064C4.42247 2.35315 4.32764 2.41027 4.23518 2.47446C4.14114 2.5393 4.05046 2.6089 3.96351 2.68301C3.87142 2.76156 3.78263 2.8439 3.69735 2.92982C3.62418 3.00318 3.55671 3.07437 3.49424 3.14485C3.43177 3.21533 3.37436 3.28484 3.32105 3.35526C3.26774 3.42567 3.21885 3.49647 3.17355 3.56946C3.12825 3.64244 3.08654 3.71741 3.04772 3.79572C3.00796 3.87625 2.9718 3.95851 2.93937 4.04227C2.90573 4.12873 2.87427 4.22001 2.84441 4.31745C2.81299 4.42068 2.78442 4.52477 2.75875 4.62959C2.73126 4.74071 2.70467 4.85939 2.67827 4.98693C2.67026 5.0257 2.66244 5.09028 2.65488 5.17744L2.6331 5.50384L2.59466 6.49132L2.54423 9.29405L2.53782 12.2271L2.55525 13.3777C2.56358 13.7012 2.57447 13.9577 2.58818 14.1223C2.60676 14.3458 2.63009 14.5561 2.65905 14.7544C2.68801 14.9528 2.72222 15.1389 2.76233 15.3142C2.80244 15.4894 2.84858 15.6537 2.90112 15.8081C2.92739 15.8853 2.95532 15.96 2.9848 16.0324C3.01381 16.1035 3.04511 16.1736 3.07866 16.2427C3.11166 16.3105 3.14639 16.3762 3.18291 16.4398C3.21905 16.5028 3.25746 16.5644 3.29805 16.6246C3.33804 16.684 3.38021 16.7418 3.42446 16.798C3.46855 16.8539 3.51449 16.908 3.56254 16.9605C3.61076 17.0131 3.66086 17.0641 3.71273 17.1131C3.76495 17.1624 3.81909 17.2103 3.87547 17.2568C3.93186 17.3032 3.99042 17.3476 4.05103 17.3921C4.11165 17.4366 4.17463 17.4785 4.23979 17.52C4.32616 17.575 4.41157 17.6255 4.49788 17.6719C4.58419 17.7184 4.67132 17.761 4.76103 17.7998C4.85073 17.8386 4.94293 17.8739 5.03936 17.906C5.13938 17.9392 5.2407 17.9683 5.34307 17.9932C5.45533 18.0205 5.56849 18.0441 5.68233 18.0638C5.80247 18.0849 5.93017 18.1035 6.06728 18.1203C6.2044 18.1371 6.35074 18.1518 6.50811 18.1651L7.01492 18.2008L7.70223 18.2222L8.76072 18.2335L11.456 18.2293L14.0311 18.1958L14.9394 18.1705C15.1778 18.1613 15.3442 18.1513 15.4166 18.1407C15.6049 18.1135 15.792 18.0785 15.9773 18.0356C16.1552 17.9942 16.3242 17.9462 16.4843 17.8915C16.5631 17.8647 16.6411 17.8357 16.7182 17.8045C16.7928 17.7743 16.8665 17.7419 16.9392 17.7073C17.0106 17.6732 17.0801 17.6374 17.1474 17.5999C17.2148 17.5624 17.28 17.5232 17.3432 17.4822C17.4065 17.4412 17.4677 17.3985 17.5268 17.354C17.5859 17.3094 17.6431 17.2632 17.6982 17.215C17.7533 17.1669 17.8065 17.117 17.8577 17.0654C17.9089 17.0137 17.9583 16.9602 18.0056 16.9049C18.053 16.8494 18.0984 16.7922 18.1418 16.7334C18.1853 16.6744 18.227 16.6135 18.2667 16.5508C18.3068 16.4875 18.3448 16.4228 18.3805 16.3569C18.4166 16.2903 18.4508 16.222 18.4833 16.1517C18.5198 16.073 18.5545 15.9934 18.5874 15.9131C18.6185 15.8371 18.6473 15.7601 18.6738 15.6823C18.7001 15.6049 18.7238 15.5266 18.7449 15.4476C18.7669 15.3647 18.7862 15.2813 18.8029 15.1972C18.8211 15.1051 18.8369 15.0125 18.8502 14.9195C18.8645 14.8211 18.8773 14.7163 18.8891 14.6029C18.9127 14.3762 18.9324 14.1157 18.9511 13.8059L18.9781 13.1441L18.9977 12.2343L19.0141 10.0014L18.9997 7.76636L18.9809 6.85392C18.9734 6.58632 18.9646 6.35973 18.9545 6.18803C18.9418 5.97396 18.9264 5.77388 18.9078 5.58626C18.8892 5.39864 18.8673 5.2234 18.8417 5.05908C18.8179 4.90407 18.7883 4.75002 18.7529 4.59724C18.7191 4.45314 18.681 4.31828 18.6382 4.19138C18.5954 4.06448 18.5477 3.94509 18.4947 3.83212C18.4428 3.72129 18.3841 3.61379 18.319 3.51021C18.2546 3.40808 18.1842 3.30993 18.108 3.21629C18.0316 3.12206 17.9487 3.03072 17.8588 2.94105C17.7736 2.85606 17.6864 2.7766 17.5964 2.70246C17.5065 2.62832 17.4138 2.55951 17.3177 2.49564C17.2212 2.43147 17.1213 2.37244 17.0185 2.31881C16.9149 2.26476 16.8073 2.2154 16.6947 2.17053C16.5821 2.12566 16.4648 2.0851 16.342 2.04889C16.2191 2.01269 16.0908 1.9806 15.9562 1.95235C15.8161 1.92323 15.6751 1.89885 15.5334 1.87924C15.3857 1.8587 15.2313 1.84156 15.0692 1.82789C14.9447 1.8173 14.7323 1.80812 14.4541 1.80029L13.4436 1.78078Z" fill="#D1D5DB"/>
</svg>
