<svg width="32" height="32" viewBox="0 0 32 32" fill="none" xmlns="http://www.w3.org/2000/svg">
<path fill-rule="evenodd" clip-rule="evenodd" d="M17.2238 1.33439C16.4706 0.888536 15.5294 0.888536 14.7762 1.33439L4.1542 7.6218C3.43812 8.04566 3 8.80892 3 9.63255V22.3674C3 23.1911 3.43812 23.9543 4.15421 24.3782L14.7762 30.6656C15.5294 31.1115 16.4706 31.1115 17.2238 30.6656L27.8458 24.3782C28.5619 23.9543 29 23.1911 29 22.3674V9.63255C29 8.80892 28.5619 8.04566 27.8458 7.6218L17.2238 1.33439ZM16.8811 10.2837C16.4234 9.502 15.2793 9.502 14.8217 10.2837L9.15831 19.9574C8.70066 20.7391 9.27272 21.7163 10.188 21.7163H21.5147C22.43 21.7163 23.0021 20.7391 22.5444 19.9574L16.8811 10.2837Z" fill="#0284C7"/>
</svg>
